<?xml version="1.0" standalone="no"?>
<!DOCTYPE svg PUBLIC "-//W3C//DTD SVG 20010904//EN"
 "http://www.w3.org/TR/2001/REC-SVG-20010904/DTD/svg10.dtd">
<svg version="1.0" xmlns="http://www.w3.org/2000/svg"
 width="2048.000000pt" height="2048.000000pt" viewBox="0 0 2048.000000 2048.000000"
 preserveAspectRatio="xMidYMid meet">
<metadata>
Created by potrace 1.14, written by Peter Selinger 2001-2017
</metadata>
<g transform="translate(0.000000,2048.000000) scale(0.100000,-0.100000)"
fill="#000000" stroke="none">
<path d="M11587 18193 c-1 -1 -511 -3 -1132 -4 -1268 -4 -1355 -6 -2065 -65
-286 -24 -594 -79 -919 -166 -152 -41 -153 -42 -131 -60 20 -16 45 -18 249
-18 421 -1 776 -17 877 -39 168 -37 290 -102 374 -202 34 -40 43 -61 55 -121
16 -85 31 -263 40 -468 4 -80 8 -163 10 -185 4 -55 16 -330 20 -462 9 -315 4
-9200 -5 -9378 -20 -391 -44 -576 -131 -1008 -81 -403 -142 -644 -199 -780
-279 -671 -725 -1221 -1286 -1587 -283 -184 -584 -300 -929 -357 -152 -25
-545 -25 -690 0 -733 127 -1342 651 -1652 1422 -131 326 -187 635 -187 1040 0
269 13 403 60 635 41 203 136 394 251 508 148 145 282 218 653 351 490 177
952 495 1200 826 122 163 350 523 495 780 15 28 98 163 184 300 243 392 379
535 726 763 71 47 186 113 255 146 l125 61 -125 8 c-107 7 -367 2 -465 -8 -16
-2 -57 -6 -90 -9 -33 -3 -76 -8 -95 -11 -19 -2 -55 -7 -80 -9 -166 -18 -476
-76 -675 -126 -320 -82 -596 -174 -792 -266 -28 -13 -55 -24 -58 -24 -6 0
-263 -127 -335 -166 -19 -11 -36 -22 -38 -26 -2 -5 -8 -8 -13 -8 -11 0 -223
-129 -309 -189 -392 -271 -775 -641 -1037 -1001 -72 -100 -267 -397 -366 -560
-127 -207 -250 -504 -311 -751 -36 -144 -94 -469 -111 -619 -26 -231 -40 -706
-26 -885 17 -220 56 -519 87 -667 30 -145 105 -377 162 -503 63 -139 209 -421
266 -513 28 -46 56 -91 61 -100 12 -20 124 -180 142 -202 123 -153 184 -222
313 -350 69 -69 141 -139 160 -155 56 -50 282 -229 320 -255 19 -13 37 -27 40
-30 7 -7 201 -129 265 -165 82 -47 254 -130 350 -170 50 -21 104 -43 120 -50
27 -12 244 -85 355 -120 55 -17 236 -65 270 -71 14 -3 75 -16 135 -30 61 -13
124 -27 140 -30 17 -2 55 -9 85 -14 119 -22 248 -41 365 -55 28 -3 61 -8 75
-10 14 -2 61 -7 105 -11 44 -3 87 -8 96 -9 14 -3 109 -11 239 -20 307 -22 839
-23 4390 -12 1687 6 2015 12 2288 47 156 20 257 53 291 94 21 25 7 33 -120 65
-149 38 -245 53 -589 97 -424 53 -598 94 -800 191 -159 77 -251 188 -300 365
-31 111 -48 229 -55 373 -3 72 -8 153 -10 180 -15 192 -18 658 -23 3540 -3
1777 -5 3322 -5 3435 2 3601 12 6477 22 6550 76 532 375 822 916 890 142 18
432 16 545 -5 14 -2 74 -11 135 -20 203 -28 351 -78 596 -200 290 -145 464
-269 685 -490 174 -173 248 -263 383 -465 240 -360 422 -808 515 -1266 67
-328 91 -619 83 -1014 -8 -369 -32 -586 -102 -915 -140 -651 -398 -1275 -740
-1790 -405 -609 -940 -1041 -1540 -1241 -221 -74 -559 -135 -900 -163 -66 -6
-137 -16 -157 -22 l-38 -12 43 -19 c57 -26 263 -83 367 -102 112 -21 309 -45
440 -54 207 -14 893 -6 1000 13 14 2 61 6 105 10 44 3 87 8 95 10 8 2 42 6 75
10 58 6 85 9 150 20 17 3 50 7 75 11 25 3 52 7 60 9 8 3 33 7 55 11 22 3 67
12 100 19 33 8 76 17 95 20 77 13 386 98 531 146 648 215 1225 554 1683 989
570 541 939 1154 1139 1895 62 227 115 514 132 715 4 41 9 86 11 99 2 14 7 81
11 150 69 1195 -249 2122 -982 2857 -472 474 -924 744 -1585 948 -219 67 -623
157 -860 190 -140 20 -330 42 -435 51 -38 3 -81 8 -95 10 -14 2 -79 7 -145 10
-66 4 -138 10 -160 13 -35 5 -2843 10 -2848 5z"/>
<path d="M5840 17243 c-89 -6 -306 -35 -375 -49 -167 -35 -755 -233 -1009
-340 -391 -166 -703 -374 -1004 -668 -127 -124 -181 -189 -272 -324 -172 -259
-294 -590 -346 -937 -21 -144 -24 -477 -5 -630 67 -540 216 -1047 596 -2030
132 -338 207 -569 249 -760 50 -226 66 -358 73 -607 3 -120 9 -218 12 -218 3
0 32 59 65 131 100 226 183 506 217 739 17 110 17 382 2 688 -15 282 -20 333
-73 707 -121 859 -129 1241 -34 1750 74 396 277 851 500 1120 27 33 91 114
141 180 175 230 370 446 568 628 223 206 550 459 744 576 l84 51 -44 -2 c-24
-1 -64 -3 -89 -5z"/>
<path d="M8359 17006 c-2 -3 -96 -16 -209 -31 -319 -41 -809 -113 -985 -146
-657 -122 -1141 -364 -1579 -789 -383 -371 -619 -798 -765 -1385 -81 -322
-124 -611 -186 -1230 -60 -608 -91 -828 -150 -1098 -14 -62 -40 -188 -59 -282
-41 -201 -105 -469 -146 -613 -17 -56 -30 -105 -30 -109 0 -11 142 200 183
272 96 169 252 378 434 580 103 114 148 151 535 439 387 287 514 407 703 661
306 413 465 817 655 1660 149 663 220 864 408 1160 63 99 339 359 535 504 144
106 551 341 592 341 8 0 15 4 15 9 0 6 19 21 43 35 23 14 35 26 26 26 -9 0
-18 -2 -20 -4z"/>
<path d="M7727 15164 c-41 -302 -108 -558 -218 -833 -124 -306 -140 -344 -188
-446 -145 -307 -446 -712 -801 -1079 -313 -322 -596 -553 -1260 -1026 -471
-335 -652 -482 -798 -648 -389 -440 -707 -902 -926 -1347 -117 -238 -215 -519
-272 -782 -13 -65 -40 -181 -59 -258 -51 -205 -66 -316 -72 -545 -5 -189 -5
-204 11 -191 9 7 16 19 16 25 0 19 183 394 264 541 95 171 239 390 348 527
314 397 805 768 1533 1159 435 232 615 342 837 510 112 84 286 230 323 269 17
18 98 92 180 165 443 392 717 737 921 1160 187 388 296 755 351 1180 25 198
25 733 0 920 -44 328 -145 835 -166 835 -4 0 -15 -61 -24 -136z"/>
<path d="M2025 14050 c-4 -11 -10 -18 -14 -15 -9 5 -23 -45 -41 -145 -6 -36
-17 -99 -25 -140 -53 -294 -49 -765 11 -1085 45 -240 123 -485 218 -680 111
-230 228 -410 446 -685 287 -361 351 -456 432 -645 90 -209 166 -523 175 -723
3 -67 9 -125 13 -127 20 -12 87 307 120 570 36 280 20 585 -46 883 -60 273
-188 583 -339 822 -37 58 -148 212 -247 343 -99 131 -220 300 -269 375 -176
266 -316 592 -368 852 -30 148 -53 317 -52 373 1 50 -4 60 -14 27z"/>
</g>
</svg>
