<?xml version="1.0" encoding="utf-8"?>
<!-- Generator: Adobe Illustrator 24.1.2, SVG Export Plug-In . SVG Version: 6.00 Build 0)  -->
<svg version="1.1" xmlns="http://www.w3.org/2000/svg" xmlns:xlink="http://www.w3.org/1999/xlink" x="0px" y="0px"
	 viewBox="0 0 122.9 123.2" style="enable-background:new 0 0 122.9 123.2;" xml:space="preserve">
<path fill="#accd67" d="M95.2,97.3h-0.8c-0.9,0-1.7-0.9-1.7-2.1l0,0c0-4-0.6-7.9-1.8-11.5c-2.7-7.5-7.5-13.6-13.4-17c-2.9-1.5-6-2.3-9.1-2.3
	c-0.9,0-1.6-0.9-1.6-2.1v-1.1c0-1.1,0.7-2.1,1.6-2.1c3.1,0,6.2-0.8,9.1-2.3c3-1.7,5.7-4,7.9-7c2.3-2.9,4.2-6.3,5.5-10.1
	c1.2-3.6,1.8-7.6,1.8-11.5c0-1.1,0.7-2.1,1.7-2.1h0.8c0.9,0,1.6,0.9,1.7,2.1c0,4,0.6,7.9,1.8,11.5c1.3,3.8,3.2,7.2,5.5,10
	c2.3,2.9,5,5.3,7.9,7c2.9,1.6,6,2.3,9.1,2.3c0.9,0,1.6,0.9,1.6,2.1v1.1c0,1.1-0.7,2.1-1.6,2.1c-3.1,0-6.2,0.8-9.1,2.3
	c-5.9,3.4-10.7,9.5-13.4,17c-1.2,3.7-1.8,7.6-1.8,11.5C96.9,96.3,96.1,97.3,95.2,97.3C95.2,97.3,95.2,97.3,95.2,97.3z M33.6,83.9h-1
	c-0.9,0-1.6-0.9-1.6-2.1c0-4.8-0.7-9.5-2.2-13.9c-1.6-4.5-3.8-8.6-6.6-12.1c-2.7-3.5-6-6.4-9.5-8.4c-3.5-1.9-7.2-2.8-11-2.8
	c-0.9,0-1.7-0.9-1.7-2.1c0,0,0,0,0,0v-1.3c0-1.1,0.7-2.1,1.6-2.1c3.8,0,7.5-0.9,11-2.8c3.6-2,6.8-4.8,9.5-8.4
	c2.8-3.5,5-7.6,6.6-12.1C30.3,11.6,31,6.9,31,2.1C31,0.9,31.7,0,32.6,0h1c0.9,0,1.6,0.9,1.6,2.1c0,4.8,0.7,9.5,2.2,13.9
	c1.6,4.5,3.8,8.6,6.6,12.1c2.7,3.5,6,6.4,9.5,8.4c3.5,1.9,7.2,2.8,11,2.8c0.9,0,1.6,0.9,1.6,2.1c0,0,0,0,0,0v1.3
	c0,1.2-0.7,2.1-1.7,2.1l0,0c-3.8,0-7.5,0.9-11,2.8c-7.2,4.1-12.9,11.4-16.1,20.5c-1.5,4.4-2.2,9.1-2.2,13.9
	C35.3,83,34.5,83.9,33.6,83.9L33.6,83.9z M32.1,60.9c0.4,1.2,0.8,2.4,1,3.7c0.3-1.3,0.6-2.5,1-3.7c2.8-7.9,7.7-14.1,13.9-17.7
	C49,42.7,50,42.3,51,42c-1-0.4-2-0.8-2.9-1.3c-3.1-1.7-5.9-4.2-8.2-7.2c-2.4-3-4.4-6.5-5.7-10.4c-0.4-1.2-0.8-2.4-1-3.7
	c-0.3,1.3-0.6,2.5-1,3.7c-1.3,3.9-3.3,7.5-5.7,10.5c-2.4,3.1-5.2,5.5-8.3,7.2c-1,0.5-1.9,0.9-2.9,1.3c1,0.3,2,0.8,2.9,1.3
	c3.1,1.7,5.9,4.2,8.2,7.2C28.8,53.5,30.7,57,32.1,60.9z M58.1,123.1h-0.5c-0.9,0-1.6-0.9-1.6-2.1c0-2.3-0.3-4.7-1.1-6.8
	c-1.6-4.5-4.5-8.1-8-10.1c-1.7-0.9-3.5-1.4-5.4-1.4c-0.9,0-1.6-0.9-1.6-2V100c0-1.1,0.7-2.1,1.6-2.1c1.9,0,3.7-0.4,5.4-1.4
	c3.6-2,6.4-5.6,8-10.1c0.7-2.2,1.1-4.5,1.1-6.8c0-1.1,0.7-2.1,1.6-2.1h0.5c0.9,0,1.6,0.9,1.6,2.1c0,2.3,0.4,4.7,1.1,6.8
	c1.6,4.5,4.4,8.1,8,10.1c1.7,0.9,3.5,1.4,5.4,1.4c0.9,0,1.6,0.9,1.6,2.1c0,0,0,0,0,0v0.7c0,1.1-0.7,2.1-1.6,2.1
	c-1.9,0-3.7,0.4-5.4,1.4c-1.8,1-3.4,2.4-4.8,4.2l-0.1,0.1c-1.3,1.7-2.4,3.7-3.2,5.8c-0.7,2.2-1.1,4.5-1.1,6.8
	C59.7,122.2,59,123.2,58.1,123.1C58.1,123.2,58.1,123.2,58.1,123.1L58.1,123.1z M54.4,104.7c1.4,1.8,2.6,3.9,3.4,6.3
	c0.8-2.3,2-4.4,3.4-6.2l0.1-0.1c1.4-1.8,3.1-3.3,5-4.3c-3.7-2.1-6.7-5.9-8.4-10.6c-0.8,2.3-2,4.5-3.4,6.3c-1.4,1.8-3.1,3.3-4.9,4.4
	C51.3,101.4,53,102.9,54.4,104.7z M94.2,78.5c0.3,0.8,0.5,1.6,0.7,2.4c0.2-0.8,0.4-1.6,0.7-2.4c2.5-7,6.9-12.6,12.5-15.8
	c0.6-0.3,1.3-0.6,1.9-0.9c-0.7-0.3-1.3-0.6-1.9-0.9c-2.8-1.5-5.3-3.7-7.4-6.4c-2.2-2.7-3.9-5.9-5.1-9.4c-0.3-0.8-0.5-1.6-0.7-2.4
	c-0.2,0.8-0.4,1.6-0.7,2.4c-1.2,3.5-2.9,6.7-5.1,9.4c-2.1,2.7-4.6,4.9-7.4,6.5c-0.6,0.3-1.3,0.6-1.9,0.9c0.6,0.3,1.3,0.6,1.9,0.9
	C87.3,65.9,91.7,71.5,94.2,78.5z"/>
</svg>
